<?xml version="1.0" encoding="UTF-8"?><svg viewBox="0 0 185 52" version="1.1" xmlns="http://www.w3.org/2000/svg" xmlns:xlink="http://www.w3.org/1999/xlink"><!--Generator: Sketch 50.2 (55047) - http://www.bohemiancoding.com/sketch--><title>logo-uniklinik-rwth-aachen</title><desc>Created with Sketch.</desc><defs/><g id="Page-1" stroke="none" stroke-width="1" fill="none" fill-rule="evenodd"><g id="logo-uniklinik-rwth-aachen" fill-rule="nonzero"><path d="M82,0 L73.1496916,0 L68.0311419,10.2289216 L68.0212126,10.2615134 C67.9550173,10.365807 67.9053708,10.496174 67.8623439,10.6395777 L67.9500527,0 L60.1870017,0 L60,23 L67.7647059,23 L67.8524146,12.1257617 C67.8970964,12.2919796 67.9550173,12.4402721 68.0261772,12.5559728 L68.0311419,12.5722687 L72.7773432,23 L81.9685572,23 L75.5409959,11.3663738 L82,0 Z" id="Fill-1" fill="#669900"/><path d="M173,0 L164.148828,0 L159.02997,10.2289216 L159.02004,10.2615134 C158.955496,10.365807 158.904192,10.496174 158.861162,10.6395777 L158.950531,0 L151.185358,0 L151,23 L158.763518,23 L158.851232,12.1257617 C158.895917,12.2919796 158.953841,12.4402721 159.025005,12.5559728 L159.02997,12.5722687 L163.776457,23 L172.968555,23 L166.540607,11.3663738 L173,0 Z" id="Fill-2" fill="#669900"/><path d="M13.9013955,13.1800028 C13.8693452,15.5053023 12.9769974,16.5844925 11,16.5844925 C8.86443797,16.5844925 8.03450391,15.5730616 8.03450391,13.5501997 C8.03450391,12.1355185 8.06655421,10.7191847 8.06655421,9.30285085 L8.13065481,0 L0.160251495,0 L0.032050299,9.50612863 C0,11.1918469 0,13.0791902 0,14.5285773 C0,18.8436854 2.51847876,24 10.585033,24 C19.4174206,24 21.8397485,19.6518386 21.8717988,12.4049029 L22,0 L14.0295967,0 L13.9013955,13.1800028 Z" id="Fill-3" fill="#669900"/><polygon id="Fill-4" fill="#669900" points="49 23 56.8118235 23 57 0 49.1881765 0"/><polygon id="Fill-5" fill="#669900" points="104 23 111.811823 23 112 0 104.186511 0"/><polygon id="Fill-6" fill="#669900" points="140 22.9396972 140.18705 -3.55271368e-15 148 0.0603027826 147.81295 23"/><path d="M91.6922779,16.2111379 L91.8781692,0 L84.1595704,0 L84.0082253,18.6506306 C84.0065802,18.704407 84,18.7565538 84,18.8103302 C84,18.8526994 84.0049352,18.8934391 84.0049352,18.9341788 L84.0049352,18.9667706 L84.0065802,18.9684002 C84.0871879,21.0575315 85.7388233,22.7571914 87.8510741,22.9755562 C87.8889104,22.9804449 87.9251016,22.9837041 87.9629379,22.9853337 C88.0715115,22.9951112 88.1817302,22.9983704 88.2919489,22.9983704 L88.293594,23 L100.939133,23 L101,16.2192858 L91.6988581,16.2192858 C91.6972131,16.2160266 91.693923,16.2143971 91.6922779,16.2111379" id="Fill-7" fill="#669900"/><polygon id="Fill-8" fill="#669900" points="39.9215323 0 39.8620636 12.4044211 40.1492122 13.8384583 39.4831634 12.3946436 35.0434044 0 25.1597158 0 25 23 32.0139018 23 31.8066111 10.4831373 31.5160643 9.03280431 32.1923077 10.4896557 36.9565956 23 46.8080012 23 47 0"/><polygon id="Fill-9" fill="#669900" points="129.921532 0 129.862064 12.3848661 129.865462 12.3848661 130.156009 13.8384583 129.483163 12.393014 125.043404 0 115.159716 0 115 23 122.013902 23 121.804912 10.4472864 121.522861 9.03280431 122.192308 10.4912852 126.956596 23 136.808001 23 137 0"/><path d="M7.93429158,50.9999585 L7.63068348,50.9999585 L0,51 L0,28 L13.0112936,28.000001 C16.5382077,27.998374 19.5810355,30.2012419 20.5728219,33.1215873 C21.4937665,35.8271776 20.7077589,38.7686731 18.6331035,40.8609095 C18.9080375,41.581641 19.1779114,42.1461869 19.4326049,42.7937064 C20.0094603,44.074103 20.537401,45.3544996 21.1125697,46.6186268 L23,51 L22.9510854,50.9999585 L14.9560722,50.9999585 C14.9560722,51.0032123 14.8919771,50.814488 14.8278821,50.7380222 C14.5074069,50.0595909 14.2189792,49.3339786 13.9001907,48.6555474 L11.9638457,44.2286616 C11.1963919,42.4390349 10.4289381,40.7470242 9.66148431,38.9590244 C10.6195365,38.9329934 11.336389,39.1054484 12.260707,38.6970881 C12.9100909,38.3879707 13.8951305,37.6216851 13.9204312,36.1509373 C13.8951305,35.4236981 13.6859783,34.8721677 13.1867116,34.2978602 C12.6857583,33.764226 11.9604723,33.3705081 11.0159138,33.3558657 C11.0159138,33.3558657 7.93260487,33.3558657 7.93429158,33.3558657 L7.93429158,50.9999585 Z" id="Fill-10" fill="#00549F"/><path d="M90,28 L90,51 L83.8777005,51 L82.1570543,51 L82.1570543,41.6207116 L81.42678,41.6207116 L76.7316833,41.6207116 L76.6683261,41.6207116 L76.6683261,51 C75.244458,51 73.7122159,50.9853576 72.2883477,51 L68.8253804,51 L68.8253804,33.321709 L63.3416541,33.321709 L63.3416541,33.8764943 L63.3416541,35.5424772 L63.3416541,43.1174931 L63.3416541,51 L63.278297,51 L55.4987084,51 L55.4987084,33.321709 L49.9666307,33.321709 L49.9666307,41.6678928 L49.9666307,51 L41.8885967,51 C40.4814015,47.6843036 38.9958435,44.3360685 37.6203269,41.0350145 C37.4619341,40.3403127 37.3052085,39.6472377 37.0984642,38.9671783 L37.0984642,51 L29.0054246,51 C27.3998215,47.3605433 25.8592429,43.7926717 24.2586417,40.0978991 C23.7034332,38.8175002 23.2499296,37.7762609 22.6780481,36.4454269 L22.598018,36.2713447 L21.3525503,33.4193252 L19.5685469,29.3422225 C19.4118213,28.8801726 19.1583928,28.4620499 19,28 L27.0763667,28 C28.7353231,31.9339322 30.4109525,35.8206833 32.1499389,39.692792 L32.1982904,39.7855273 C32.1349333,39.3381198 31.9915461,38.7670651 31.9131834,38.335927 L31.9131834,31.4702554 C31.928189,30.3753272 31.9131834,29.12584 31.9131834,28 L40.006223,28 C40.1095952,28.2505482 40.1662831,28.3855839 40.2446459,28.5856971 C41.1933355,30.7609111 42.0936737,32.9214826 43.0423633,35.0804272 L45.1614926,39.7855273 C45.1131411,39.2909387 45.0030998,38.8142463 44.9397426,38.335927 L44.9397426,28 L76.6683261,28 L76.6683261,29.4349579 L76.6683261,36.2990026 L82.1570543,36.2990026 L82.1570543,28 L90,28 Z" id="Fill-11" fill="#00549F"/><path d="M113,42 L115.463925,32 L115.534271,32 L118,42 L113,42 Z M97,42 L99.463925,32 L99.5342713,32 L102,42 L97,42 Z M117.77371,28 L111.908486,28 L107.001664,46.1280147 L102.091514,28 L96.2279534,28 L90,51 L94.9417637,51 L96.0282862,46.1361482 L102.289517,46.1361482 L103.37604,51 L110.62396,51 L111.710483,46.1361482 L117.971714,46.1361482 L119.0599,51 L124,51 L117.77371,28 Z" id="Fill-12" fill="#8EBAE5"/><path d="M136.808958,36.2483079 C136.808958,32.8846653 136.329736,28 129.756611,28 C122.862925,28 122,32.9814726 122,40.0008204 C122,47.0185274 122.862925,52 129.756611,52 C135.787372,52 137,47.6978191 137,42.7163465 L132.405289,42.7163465 C132.405289,47.6978191 131.192661,48.5707254 129.533189,48.5707254 C127.553157,48.5707254 126.59633,47.31059 126.59633,40.3240582 C126.59633,33.7903876 127.138694,31.4292746 129.46843,31.4292746 C131.543983,31.4292746 132.214247,32.8846653 132.214247,36.2483079 L136.808958,36.2483079 Z" id="Fill-13" fill="#8EBAE5"/><polygon id="Fill-14" fill="#8EBAE5" points="139 51 143.736405 51 143.736405 40.7877202 149.261934 40.7877202 149.261934 51 154 51 154 28 149.261934 28 149.261934 36.7935913 143.736405 36.7935913 143.736405 28 139 28"/><polygon id="Fill-15" fill="#8EBAE5" points="155 28 155 51 168 51 168 47.1986563 159.576436 47.1986563 159.576436 41.0143564 167.204098 41.0143564 167.204098 37.2130127 159.576436 37.2130127 159.576436 31.8013437 167.680676 31.8013437 167.680676 28"/><polygon id="Fill-16" fill="#8EBAE5" points="180.57978 28 180.57978 43.7519983 180.511382 43.7519983 174.620605 28 169 28 169 51 173.469809 51 173.469809 34.8933296 173.536497 34.8933296 179.497382 51 185 51 185 28"/></g></g></svg>