<svg xmlns="http://www.w3.org/2000/svg" width="238" height="39.688" viewBox="0 0 299.73 50"><defs><style>.cls-1{fill:#f7ac00;}.cls-2{fill:#1d1d1b;}</style></defs><title>ukd-logo</title><g id="Ebene_2" data-name="Ebene 2"><g id="ukd-logo"><path class="cls-1" d="M27.2,34.79a18.56,18.56,0,0,1-1.64,8.08,12,12,0,0,1-4.74,5.28A13.8,13.8,0,0,1,13.62,50a13.55,13.55,0,0,1-7.06-1.86,12.57,12.57,0,0,1-4.84-5.22A16.76,16.76,0,0,1,0,35.2V.64H6.81V34.93a9.92,9.92,0,0,0,1.66,5.81,5.84,5.84,0,0,0,5.15,2.39q3.62,0,5.23-2.41A10.05,10.05,0,0,0,20.46,35V.64H27.2Z"/><path class="cls-1" d="M63.89,49.22H56.54l-9-24.36-4,6.54V49.22H36.69V.64H43.5v12.3q0,4.71-.14,7.76,3.39-6,3.9-6.84l8-13.21h7.72L52.37,17.72Z"/><path class="cls-1" d="M97.33,24.73A43.33,43.33,0,0,1,95.6,37.55a18.33,18.33,0,0,1-5.22,8.62,12.38,12.38,0,0,1-8.44,3H70.12V.64H81.95a12.82,12.82,0,0,1,8.67,2.95,17.36,17.36,0,0,1,5.06,8.35A44.21,44.21,0,0,1,97.33,24.73Zm-7,0a44.34,44.34,0,0,0-.78-8.6,14.72,14.72,0,0,0-2.71-6.37,6.2,6.2,0,0,0-5.12-2.44H76.93V42.55h5A5.84,5.84,0,0,0,86.87,40a16.15,16.15,0,0,0,2.66-6.55A45.59,45.59,0,0,0,90.31,24.73Z"/><path class="cls-2" d="M114.06,13.87a7.13,7.13,0,0,1-.63,3.1,4.61,4.61,0,0,1-1.82,2,5.3,5.3,0,0,1-2.76.71,5.21,5.21,0,0,1-2.71-.71,4.82,4.82,0,0,1-1.86-2,6.44,6.44,0,0,1-.66-3V.77h2.61V13.92a3.81,3.81,0,0,0,.64,2.23,2.62,2.62,0,0,0,4,0,3.86,3.86,0,0,0,.62-2.2V.77h2.59Z"/><path class="cls-2" d="M126.28,19.41h-2.56v-8.6a5.75,5.75,0,0,0-.39-2.49A1.39,1.39,0,0,0,122,7.58a2.22,2.22,0,0,0-1.15.31,2.8,2.8,0,0,0-.93,1V19.41h-2.56v-14h2.56v1a3.34,3.34,0,0,1,1.15-.92,3.47,3.47,0,0,1,1.57-.35,4.16,4.16,0,0,1,1.72.31,2.58,2.58,0,0,1,1.11,1A4.64,4.64,0,0,1,126.08,8a11.86,11.86,0,0,1,.2,2.37Z"/><path class="cls-2" d="M132.21,1.68a1.51,1.51,0,0,1-.47,1.1,1.51,1.51,0,0,1-1.1.47,1.55,1.55,0,0,1-1.12-.47,1.49,1.49,0,0,1-.48-1.1,1.52,1.52,0,0,1,.48-1.13,1.55,1.55,0,0,1,1.12-.47,1.51,1.51,0,0,1,1.1.47A1.54,1.54,0,0,1,132.21,1.68Zm-.29,17.73h-2.56v-14h2.56Z"/><path class="cls-2" d="M144.12,5.43l-3.48,14h-3l-3.51-14h2.61l1.7,7.53q.52,2.26.72,3.52.09-.6.69-3.57l1.63-7.47Z"/><path class="cls-2" d="M155.28,12.38q0,.64,0,.91h-7.33q.25,4,2.64,4a3.57,3.57,0,0,0,1.37-.23,4.08,4.08,0,0,0,1.17-.81l1.57,1.63a5.87,5.87,0,0,1-1.85,1.37,5.3,5.3,0,0,1-2.31.52,4.34,4.34,0,0,1-3.8-1.94,9.15,9.15,0,0,1-1.34-5.27,11.61,11.61,0,0,1,.62-4A5.27,5.27,0,0,1,147.74,6a4.53,4.53,0,0,1,4.57-.39,4.43,4.43,0,0,1,1.55,1.35,6.74,6.74,0,0,1,1,2.28A12.15,12.15,0,0,1,155.28,12.38Zm-2.61-1.3A5,5,0,0,0,152,8.52a1.91,1.91,0,0,0-1.68-1q-2,0-2.34,3.52Z"/><path class="cls-2" d="M164.78,5.62l-.61,2.56a3.45,3.45,0,0,0-1.78-.43,2.3,2.3,0,0,0-2,1.09V19.41h-2.56v-14h2.56v1a3.4,3.4,0,0,1,1.09-.92,2.92,2.92,0,0,1,1.4-.34A3.62,3.62,0,0,1,164.78,5.62Z"/><path class="cls-2" d="M174.29,15.58a4.56,4.56,0,0,1-.51,2.24,3.36,3.36,0,0,1-1.48,1.41,5.25,5.25,0,0,1-2.35.48,6.43,6.43,0,0,1-2.18-.4,8.81,8.81,0,0,1-2.11-1.1l1-2.14a6.53,6.53,0,0,0,3.25,1.2,2,2,0,0,0,1.34-.42,1.37,1.37,0,0,0,.49-1.1,1.54,1.54,0,0,0-.55-1.18A14.14,14.14,0,0,0,169,13.15,11.83,11.83,0,0,1,167.42,12a3.7,3.7,0,0,1-.94-1.23A4.1,4.1,0,0,1,166.14,9a4.34,4.34,0,0,1,.47-2.07A3.18,3.18,0,0,1,168,5.6a4.6,4.6,0,0,1,2.16-.47,6,6,0,0,1,3.81,1.32l-1,2.16a4.8,4.8,0,0,0-2.82-1,1.42,1.42,0,0,0-1,.34,1.18,1.18,0,0,0-.34.88,1.53,1.53,0,0,0,.43,1.08A9.2,9.2,0,0,0,171,11.16a13.64,13.64,0,0,1,1.85,1.23,4.06,4.06,0,0,1,1.07,1.32A4.13,4.13,0,0,1,174.29,15.58Z"/><path class="cls-2" d="M179.8,1.68a1.51,1.51,0,0,1-.47,1.1,1.51,1.51,0,0,1-1.1.47,1.55,1.55,0,0,1-1.12-.47,1.49,1.49,0,0,1-.48-1.1,1.52,1.52,0,0,1,.48-1.13,1.55,1.55,0,0,1,1.12-.47,1.51,1.51,0,0,1,1.1.47A1.54,1.54,0,0,1,179.8,1.68Zm-.29,17.73H177v-14h2.56Z"/><path class="cls-2" d="M188.51,16.68l-.29,2.38a4.07,4.07,0,0,1-2.29.65,2.33,2.33,0,0,1-2-.92,4.53,4.53,0,0,1-.66-2.65V7.83h-1.52V5.43h1.52V1.35L185.79,0V5.43h2.69V7.83h-2.69v8.06q0,1.38,1.07,1.38A2.38,2.38,0,0,0,188.51,16.68Z"/><path class="cls-2" d="M199.71,19.41h-2.56v-1a3.64,3.64,0,0,1-2.88,1.27,3.48,3.48,0,0,1-2.71-1.22A5,5,0,0,1,190.47,15a5.11,5.11,0,0,1,.57-2.5,3.7,3.7,0,0,1,1.6-1.55,5.22,5.22,0,0,1,2.38-.52,4.8,4.8,0,0,1,2.13.46V9.53a2.31,2.31,0,0,0-.4-1.51,1.78,1.78,0,0,0-1.41-.47,4.33,4.33,0,0,0-1.35.21,6.7,6.7,0,0,0-1.38.65l-1.09-1.94a7.17,7.17,0,0,1,4-1.35,6.08,6.08,0,0,1,2.44.4,2.56,2.56,0,0,1,1.32,1.31,6,6,0,0,1,.42,2.47ZM194.76,2a1.58,1.58,0,0,1-.49,1.16,1.58,1.58,0,0,1-1.16.49,1.63,1.63,0,0,1-1.18-.49,1.57,1.57,0,0,1-.5-1.16,1.62,1.62,0,0,1,.49-1.18,1.61,1.61,0,0,1,1.18-.49,1.57,1.57,0,0,1,1.16.5A1.63,1.63,0,0,1,194.76,2Zm2.39,14V13.28a4,4,0,0,0-2.1-.53,2,2,0,0,0-1.48.55A2.26,2.26,0,0,0,193,15q0,2.41,1.75,2.41A2.56,2.56,0,0,0,197.15,16.07Zm2.33-14A1.56,1.56,0,0,1,199,3.2a1.6,1.6,0,0,1-1.14.49,1.63,1.63,0,0,1-1.17-.49A1.56,1.56,0,0,1,196.15,2a1.61,1.61,0,0,1,.5-1.18,1.61,1.61,0,0,1,1.18-.5,1.58,1.58,0,0,1,1.15.5A1.61,1.61,0,0,1,199.48,2Z"/><path class="cls-2" d="M208.55,16.68l-.29,2.38a4.07,4.07,0,0,1-2.29.65,2.33,2.33,0,0,1-2-.92,4.53,4.53,0,0,1-.66-2.65V7.83h-1.52V5.43h1.52V1.35L205.84,0V5.43h2.69V7.83h-2.69v8.06q0,1.38,1.07,1.38A2.38,2.38,0,0,0,208.55,16.68Z"/><path class="cls-2" d="M219,15.58a4.56,4.56,0,0,1-.51,2.24A3.36,3.36,0,0,1,217,19.23a5.25,5.25,0,0,1-2.35.48,6.43,6.43,0,0,1-2.18-.4,8.81,8.81,0,0,1-2.11-1.1l1-2.14a6.53,6.53,0,0,0,3.25,1.2,2,2,0,0,0,1.34-.42,1.37,1.37,0,0,0,.49-1.1,1.54,1.54,0,0,0-.55-1.18,14.14,14.14,0,0,0-2.14-1.42A11.83,11.83,0,0,1,212.1,12a3.7,3.7,0,0,1-.94-1.23A4.1,4.1,0,0,1,210.81,9a4.33,4.33,0,0,1,.47-2.07,3.17,3.17,0,0,1,1.36-1.34,4.6,4.6,0,0,1,2.16-.47,6,6,0,0,1,3.81,1.32l-1,2.16a4.8,4.8,0,0,0-2.82-1,1.42,1.42,0,0,0-1,.34,1.18,1.18,0,0,0-.34.88,1.53,1.53,0,0,0,.44,1.08,9.2,9.2,0,0,0,1.85,1.28,13.64,13.64,0,0,1,1.85,1.23,4.06,4.06,0,0,1,1.07,1.32A4.13,4.13,0,0,1,219,15.58Z"/><path class="cls-2" d="M230.54,19.41h-2.79l-2.31-6.53L224,15.09v4.32h-2.56V1.33L224,0V8.38q0,1.61-.05,3l.23-.45.29-.56.36-.67.26-.48,2.11-3.81h2.9l-3,4.85Z"/><path class="cls-2" d="M235.47,19.41h-2.56V1.33L235.47,0Z"/><path class="cls-2" d="M241.62,1.68a1.51,1.51,0,0,1-.47,1.1,1.51,1.51,0,0,1-1.1.47,1.55,1.55,0,0,1-1.12-.47,1.49,1.49,0,0,1-.48-1.1,1.52,1.52,0,0,1,.48-1.13A1.55,1.55,0,0,1,240,.08a1.51,1.51,0,0,1,1.1.47A1.54,1.54,0,0,1,241.62,1.68Zm-.29,17.73h-2.56v-14h2.56Z"/><path class="cls-2" d="M253.42,19.41h-2.56v-8.6a5.75,5.75,0,0,0-.39-2.49,1.38,1.38,0,0,0-1.34-.75,2.22,2.22,0,0,0-1.15.31,2.79,2.79,0,0,0-.93,1V19.41h-2.56v-14h2.56v1a3.34,3.34,0,0,1,1.15-.92,3.47,3.47,0,0,1,1.57-.35,4.16,4.16,0,0,1,1.72.31,2.58,2.58,0,0,1,1.11,1A4.65,4.65,0,0,1,253.22,8a11.92,11.92,0,0,1,.2,2.37Z"/><path class="cls-2" d="M259.35,1.68a1.51,1.51,0,0,1-.47,1.1,1.51,1.51,0,0,1-1.1.47,1.55,1.55,0,0,1-1.12-.47,1.49,1.49,0,0,1-.48-1.1,1.52,1.52,0,0,1,.48-1.13,1.55,1.55,0,0,1,1.12-.47,1.51,1.51,0,0,1,1.1.47A1.54,1.54,0,0,1,259.35,1.68Zm-.29,17.73H256.5v-14h2.56Z"/><path class="cls-2" d="M271.28,19.41h-2.79l-2.31-6.53-1.39,2.21v4.32h-2.56V1.33L264.78,0V8.38q0,1.61-.05,3L265,11l.29-.56.36-.67.26-.48L268,5.43h2.9l-3,4.85Z"/><path class="cls-2" d="M282,19.41H279.4v-1a3.05,3.05,0,0,1-1.13.91,3.54,3.54,0,0,1-1.6.36,4,4,0,0,1-1.67-.32,2.72,2.72,0,0,1-1.14-1,4.47,4.47,0,0,1-.64-1.65,12.06,12.06,0,0,1-.2-2.31v-9h2.56V14a8.41,8.41,0,0,0,.17,1.89,1.9,1.9,0,0,0,.55,1,1.5,1.5,0,0,0,1,.32A2.38,2.38,0,0,0,279.4,16V5.43H282Z"/><path class="cls-2" d="M299.73,19.41h-2.56v-8.6a7.78,7.78,0,0,0-.28-2.53,1.14,1.14,0,0,0-1.19-.7,2.21,2.21,0,0,0-1.15.31,2.79,2.79,0,0,0-.93,1V19.41h-2.56v-8.6a7.78,7.78,0,0,0-.28-2.53,1.14,1.14,0,0,0-1.19-.7,2.21,2.21,0,0,0-1.15.31,2.79,2.79,0,0,0-.93,1V19.41H285v-14h2.56v1a3.1,3.1,0,0,1,2.61-1.27,3.57,3.57,0,0,1,1.71.37A2.79,2.79,0,0,1,293,6.64a4.27,4.27,0,0,1,1.5-1.16,4.43,4.43,0,0,1,1.78-.34,3.36,3.36,0,0,1,2.13.6,3.18,3.18,0,0,1,1.05,1.78,13.26,13.26,0,0,1,.3,3.13Z"/><path class="cls-2" d="M113.25,39.73a16.37,16.37,0,0,1-.74,5.3,6.24,6.24,0,0,1-2.14,3.13,5.57,5.57,0,0,1-3.35,1h-3.33V30.54h3.63a4.92,4.92,0,0,1,4.43,2.33Q113.25,35.19,113.25,39.73Zm-1.88.08a16.25,16.25,0,0,0-.46-4.19,5.07,5.07,0,0,0-1.37-2.51,3.29,3.29,0,0,0-2.28-.82h-1.67V47.45h1.65a3.36,3.36,0,0,0,2.22-.77,4.92,4.92,0,0,0,1.42-2.49A16.19,16.19,0,0,0,111.36,39.81Z"/><path class="cls-2" d="M124.71,49.18H122.9V48a4.09,4.09,0,0,1-1.29,1.06,3.59,3.59,0,0,1-1.72.41,3.25,3.25,0,0,1-2.72-1.19,5.61,5.61,0,0,1-.93-3.5V35.2h1.83v9.37a6,6,0,0,0,.24,1.86,1.94,1.94,0,0,0,.74,1.06,2.28,2.28,0,0,0,1.28.33,3.17,3.17,0,0,0,2.56-1.63v-11h1.81Zm-5.26-17.41a1.32,1.32,0,0,1-.4.94,1.25,1.25,0,0,1-.93.41,1.31,1.31,0,0,1-1-.4,1.3,1.3,0,0,1-.4-.95,1.33,1.33,0,0,1,.4-1,1.29,1.29,0,0,1,1-.41,1.24,1.24,0,0,1,.94.42A1.35,1.35,0,0,1,119.45,31.77Zm4.37,0a1.3,1.3,0,0,1-.4.95,1.31,1.31,0,0,1-1,.4,1.25,1.25,0,0,1-.93-.41,1.31,1.31,0,0,1-.4-.94,1.35,1.35,0,0,1,.39-.95,1.24,1.24,0,0,1,.94-.42,1.3,1.3,0,0,1,1,.41A1.33,1.33,0,0,1,123.81,31.77Z"/><path class="cls-2" d="M135.32,45.8a3.75,3.75,0,0,1-.31,1.53,3.31,3.31,0,0,1-.84,1.18,3.76,3.76,0,0,1-1.27.72,4.62,4.62,0,0,1-1.51.25,4.13,4.13,0,0,1-2.23-.61,5.71,5.71,0,0,1-1.71-1.69l1.3-1.17a7,7,0,0,0,1.33,1.37,2.26,2.26,0,0,0,1.36.45,2.3,2.3,0,0,0,1.57-.49,1.67,1.67,0,0,0,.57-1.33,2.76,2.76,0,0,0-.21-1.13,3,3,0,0,0-.76-1,12.92,12.92,0,0,0-1.64-1.18,11.7,11.7,0,0,1-1.85-1.29,4,4,0,0,1-1-1.35,4.16,4.16,0,0,1-.33-1.72,3.47,3.47,0,0,1,.46-1.78,3.28,3.28,0,0,1,1.27-1.24,3.85,3.85,0,0,1,1.89-.45,4.08,4.08,0,0,1,3.67,2l-1.35,1.14A4.63,4.63,0,0,0,132.61,37a2.27,2.27,0,0,0-1.34-.4A1.8,1.8,0,0,0,130,37a1.6,1.6,0,0,0-.48,1.22,2.14,2.14,0,0,0,.21,1,2.88,2.88,0,0,0,.74.86A15,15,0,0,0,132,41.17a12.68,12.68,0,0,1,1.88,1.35A4.3,4.3,0,0,1,135,43.93,4.47,4.47,0,0,1,135.32,45.8Z"/><path class="cls-2" d="M145.22,45.8a3.73,3.73,0,0,1-.31,1.53,3.31,3.31,0,0,1-.84,1.18,3.75,3.75,0,0,1-1.27.72,4.62,4.62,0,0,1-1.51.25,4.13,4.13,0,0,1-2.23-.61,5.7,5.7,0,0,1-1.71-1.69l1.3-1.17A7,7,0,0,0,140,47.37a2.26,2.26,0,0,0,1.36.45,2.3,2.3,0,0,0,1.57-.49,1.67,1.67,0,0,0,.57-1.33,2.75,2.75,0,0,0-.21-1.13,3,3,0,0,0-.76-1,12.94,12.94,0,0,0-1.64-1.18A11.73,11.73,0,0,1,139,41.44a4,4,0,0,1-1-1.35,4.17,4.17,0,0,1-.33-1.72,3.47,3.47,0,0,1,.46-1.78,3.28,3.28,0,0,1,1.27-1.24,3.85,3.85,0,0,1,1.89-.45,4.08,4.08,0,0,1,3.67,2l-1.35,1.14A4.62,4.62,0,0,0,142.52,37a2.27,2.27,0,0,0-1.34-.4,1.8,1.8,0,0,0-1.29.45,1.6,1.6,0,0,0-.48,1.22,2.13,2.13,0,0,0,.21,1,2.87,2.87,0,0,0,.74.86,15,15,0,0,0,1.55,1.09,12.61,12.61,0,0,1,1.88,1.35,4.29,4.29,0,0,1,1.06,1.42A4.49,4.49,0,0,1,145.22,45.8Z"/><path class="cls-2" d="M156.4,42.09a7.12,7.12,0,0,1,0,.73h-7.08a8.93,8.93,0,0,0,.81,3.65,2.15,2.15,0,0,0,2,1.33,3.06,3.06,0,0,0,1.5-.37,5.22,5.22,0,0,0,1.39-1.2L156,47.39a7,7,0,0,1-1.9,1.56,4.57,4.57,0,0,1-2.18.52,3.55,3.55,0,0,1-2.24-.8,5.28,5.28,0,0,1-1.61-2.43,12,12,0,0,1-.59-4,13.45,13.45,0,0,1,.32-3.05,7.51,7.51,0,0,1,.92-2.32,4.21,4.21,0,0,1,1.44-1.44,3.83,3.83,0,0,1,3.74,0,4,4,0,0,1,1.36,1.42,7.4,7.4,0,0,1,.83,2.24A14.72,14.72,0,0,1,156.4,42.09Zm-1.75-.9a7.85,7.85,0,0,0-.74-3.37,2.07,2.07,0,0,0-3.76-.1,7.61,7.61,0,0,0-.83,3.46Z"/><path class="cls-2" d="M161.38,49.18h-1.83V30.83l1.83-1.07Z"/><path class="cls-2" d="M173.32,49.18h-1.81V48a4.19,4.19,0,0,1-3.07,1.5,3.06,3.06,0,0,1-2.14-.81A5.09,5.09,0,0,1,165,46.23a14.65,14.65,0,0,1-.45-3.92,11.35,11.35,0,0,1,1.08-5.5,3.36,3.36,0,0,1,3.05-1.91,4,4,0,0,1,2.87,1.37V30.83l1.81-1.07Zm-1.81-2.74V38a3.43,3.43,0,0,0-2.74-1.44,2,2,0,0,0-1.87,1.5,12,12,0,0,0-.59,4.23,10.39,10.39,0,0,0,.64,4.15,2.05,2.05,0,0,0,1.92,1.39A3.6,3.6,0,0,0,171.51,46.43Z"/><path class="cls-2" d="M185.85,42.14a11.74,11.74,0,0,1-.6,4,5.41,5.41,0,0,1-1.68,2.49,4.16,4.16,0,0,1-6-1,9.63,9.63,0,0,1-1.27-5.39,9.52,9.52,0,0,1,1.29-5.39,4,4,0,0,1,3.51-1.9,4,4,0,0,1,2.51.83,5.22,5.22,0,0,1,1.65,2.46A11.84,11.84,0,0,1,185.85,42.14Zm-1.83,0a11.56,11.56,0,0,0-.35-3.11,4.07,4.07,0,0,0-1-1.86,2.22,2.22,0,0,0-1.6-.62A2.34,2.34,0,0,0,178.92,38a9.16,9.16,0,0,0-.75,4.2,9.1,9.1,0,0,0,.77,4.21,2.35,2.35,0,0,0,4.32,0A9.17,9.17,0,0,0,184,42.17Z"/><path class="cls-2" d="M195,35.2l-.51,1.89a3.28,3.28,0,0,0-1.68-.43,2,2,0,0,0-1.2.44,3.91,3.91,0,0,0-1,1.13V49.18h-1.81v-14h1.81v1.2a3.52,3.52,0,0,1,1.17-1.09,3,3,0,0,1,1.52-.4A3.9,3.9,0,0,1,195,35.2Z"/><path class="cls-2" d="M202.36,31.8a3.22,3.22,0,0,0-1.33-.27q-1.22,0-1.22,1.39V35.2H202v1.55h-2.21V49.18H198V36.75h-1.53V35.2H198V33.07a4.22,4.22,0,0,1,.35-1.82,2.25,2.25,0,0,1,1-1.07,3.17,3.17,0,0,1,1.49-.33,4.61,4.61,0,0,1,1.53.22Z"/></g></g></svg>