<?xml version="1.0" encoding="UTF-8"?>
<svg xmlns="http://www.w3.org/2000/svg" width="333.176" height="113.386" viewBox="0 0 333.176 113.386">
  <g id="Gruppe_6" data-name="Gruppe 6" transform="translate(-37.68 -37.619)">
    <g id="Typo">
      <path id="Pfad_1" data-name="Pfad 1" d="M169.962,73.311V59.464a2.454,2.454,0,0,1,4.908,0V73.111c0,5.189,2.674,7.942,7.064,7.942,4.349,0,7.023-2.594,7.023-7.742V59.464a2.454,2.454,0,0,1,4.908,0V73.071c0,8.341-4.709,12.531-12.012,12.531C174.592,85.6,169.962,81.412,169.962,73.311Z" fill="#0f2d64"></path>
      <path id="Pfad_2" data-name="Pfad 2" d="M199.3,59.544a2.46,2.46,0,0,1,2.474-2.474h.519a3.089,3.089,0,0,1,2.554,1.437l13.967,18.077V59.424a2.415,2.415,0,0,1,4.829,0V82.889a2.386,2.386,0,0,1-2.4,2.434h-.2a3.086,3.086,0,0,1-2.554-1.477l-14.367-18.6V82.969a2.414,2.414,0,0,1-4.828,0Z" fill="#0f2d64"></path>
      <path id="Pfad_3" data-name="Pfad 3" d="M230.306,59.464a2.454,2.454,0,0,1,4.907,0V82.929a2.454,2.454,0,0,1-4.907,0Z" fill="#0f2d64"></path>
      <path id="Pfad_4" data-name="Pfad 4" d="M241.878,59.584a2.454,2.454,0,0,1,4.908,0V71.4l13.249-13.329a2.583,2.583,0,0,1,2.035-.918,2.247,2.247,0,0,1,2.274,2.274,2.388,2.388,0,0,1-.878,1.836l-8.7,8.38,9.418,11.693a2.666,2.666,0,0,1,.678,1.756,2.4,2.4,0,0,1-2.474,2.394,2.485,2.485,0,0,1-2.075-1.157l-8.978-11.453-4.549,4.389v5.787a2.454,2.454,0,0,1-4.908,0V59.584Z" fill="#0f2d64"></path>
      <path id="Pfad_5" data-name="Pfad 5" d="M269.534,59.464a2.454,2.454,0,0,1,4.908,0v21.23h12.65a2.235,2.235,0,1,1,0,4.469H272.008a2.436,2.436,0,0,1-2.474-2.474Z" fill="#0f2d64"></path>
      <path id="Pfad_6" data-name="Pfad 6" d="M293.719,59.464a2.454,2.454,0,0,1,4.907,0V82.929a2.454,2.454,0,0,1-4.907,0Z" fill="#0f2d64"></path>
      <path id="Pfad_7" data-name="Pfad 7" d="M305.291,59.544a2.46,2.46,0,0,1,2.474-2.474h.519a3.089,3.089,0,0,1,2.554,1.437L324.8,76.584V59.424a2.415,2.415,0,0,1,4.829,0V82.889a2.386,2.386,0,0,1-2.395,2.434h-.2a3.086,3.086,0,0,1-2.554-1.477l-14.367-18.6V82.969a2.414,2.414,0,0,1-4.828,0Z" fill="#0f2d64"></path>
      <path id="Pfad_8" data-name="Pfad 8" d="M336.3,59.464a2.454,2.454,0,0,1,4.907,0V82.929a2.454,2.454,0,0,1-4.907,0Z" fill="#0f2d64"></path>
      <path id="Pfad_9" data-name="Pfad 9" d="M347.871,59.464a2.454,2.454,0,0,1,4.908,0V71.276l13.249-13.329a2.583,2.583,0,0,1,2.035-.918,2.247,2.247,0,0,1,2.274,2.274,2.388,2.388,0,0,1-.878,1.836l-8.7,8.38,9.418,11.693a2.666,2.666,0,0,1,.678,1.756,2.4,2.4,0,0,1-2.474,2.394,2.485,2.485,0,0,1-2.075-1.157l-8.978-11.453-4.549,4.389v5.787a2.454,2.454,0,0,1-4.908,0V59.464Z" fill="#0f2d64"></path>
      <path id="Pfad_10" data-name="Pfad 10" d="M170.849,106.688a2.454,2.454,0,0,1,4.908,0V118.5l13.249-13.329a2.583,2.583,0,0,1,2.035-.918,2.247,2.247,0,0,1,2.274,2.274,2.388,2.388,0,0,1-.878,1.836l-8.7,8.38,9.418,11.693a2.666,2.666,0,0,1,.678,1.756,2.4,2.4,0,0,1-2.474,2.394,2.485,2.485,0,0,1-2.075-1.157l-8.978-11.453-4.549,4.389v5.787a2.454,2.454,0,0,1-4.908,0V106.688Z" fill="#0f2d64"></path>
      <path id="Pfad_11" data-name="Pfad 11" d="M197.1,118.5v-.08c0-7.862,5.741-14.446,13.864-14.446s13.789,6.5,13.789,14.366v.081c0,7.861-5.742,14.445-13.864,14.445S197.1,126.361,197.1,118.5Zm22.779,0v-.08c0-5.427-3.74-9.937-8.991-9.937s-8.915,4.43-8.915,9.856v.081c0,5.427,3.739,9.9,8.99,9.9S219.884,123.927,219.884,118.5ZM207.873,99.226v.28a2.475,2.475,0,0,1-4.949,0v-.28a2.474,2.474,0,0,1,4.949,0Zm11.065,0v.28a2.474,2.474,0,0,1-4.948,0v-.28a2.474,2.474,0,1,1,4.948,0Z" fill="#0f2d64"></path>
      <path id="Pfad_12" data-name="Pfad 12" d="M230.224,106.688a2.454,2.454,0,0,1,4.908,0v21.23h12.65a2.234,2.234,0,1,1,0,4.469H232.7a2.436,2.436,0,0,1-2.474-2.474Z" fill="#0f2d64"></path>
      <path id="Pfad_13" data-name="Pfad 13" d="M254.289,106.644a2.46,2.46,0,0,1,2.474-2.474h.519a3.089,3.089,0,0,1,2.554,1.437L273.8,123.684V106.525a2.415,2.415,0,0,1,4.829,0V129.99a2.386,2.386,0,0,1-2.395,2.434h-.2a3.086,3.086,0,0,1-2.554-1.477l-14.367-18.6V130.07a2.414,2.414,0,0,1-4.828,0V106.644Z" fill="#0f2d64"></path>
    </g>
    <g id="Siegel">
      <g id="Gruppe_5" data-name="Gruppe 5">
        <g id="Gruppe_3" data-name="Gruppe 3">
          <g id="Gruppe_2" data-name="Gruppe 2">
            <g id="Gruppe_1" data-name="Gruppe 1">
              <path id="Pfad_14" data-name="Pfad 14" d="M86.516,76.009c.179,0,.313-.089.313-.268.045-.179-.089-.313-.268-.358a5.088,5.088,0,0,0-.671.045.309.309,0,0,0-.134.537C85.935,76.143,86.024,75.964,86.516,76.009Z" fill="#0f2d64"></path>
              <path id="Pfad_15" data-name="Pfad 15" d="M100.6,86.472c.224,0,.179-.179.581-.447.307-.205.037-.725-.313-.492a1.92,1.92,0,0,0-.537.4A.348.348,0,0,0,100.6,86.472Z" fill="#0f2d64"></path>
              <path id="Pfad_16" data-name="Pfad 16" d="M98.133,140.575l2.906,4.337a10.039,10.039,0,0,0,2.951-4.337l-2.906-4.382Z" fill="#0f2d64"></path>
              <path id="Pfad_17" data-name="Pfad 17" d="M94.78,145.538l1.163,1.7a9.263,9.263,0,0,0,4.561-1.923L97.732,141.2Z" fill="#0f2d64"></path>
              <path id="Pfad_18" data-name="Pfad 18" d="M93.617,147.327a7.183,7.183,0,0,0,1.565,0l-.805-1.163Z" fill="#0f2d64"></path>
              <path id="Pfad_19" data-name="Pfad 19" d="M87.715,136.193l-2.862,4.292a10.18,10.18,0,0,0,2.951,4.382l2.862-4.293Z" fill="#0f2d64"></path>
              <path id="Pfad_20" data-name="Pfad 20" d="M99.528,87.187a.305.305,0,0,0,.313.313c.57,0,.238-1.022.045-1.7a2.23,2.23,0,0,0,.492-1.789.375.375,0,0,0-.358-.268c-.179.045-.313.179-.268.358,0,0,.134,1.028-.4,1.341l-.268.134.134.268A3.11,3.11,0,0,1,99.528,87.187Z" fill="#0f2d64"></path>
              <path id="Pfad_21" data-name="Pfad 21" d="M104.259,139.77a9.464,9.464,0,0,0,.313-2.549v-6.26l-3.13,4.65Z" fill="#0f2d64"></path>
              <path id="Pfad_22" data-name="Pfad 22" d="M130.38,117.816H58.257A43.426,43.426,0,0,0,83.422,135.88v-14.8h22.044v14.8A42.87,42.87,0,0,0,130.38,117.816Z" fill="#0f2d64"></path>
              <path id="Pfad_23" data-name="Pfad 23" d="M91.068,141.2,88.3,145.27a10.439,10.439,0,0,0,4.561,1.967l1.163-1.7Z" fill="#0f2d64"></path>
              <path id="Pfad_24" data-name="Pfad 24" d="M94.377,135.031l2.951-4.382H91.471Z" fill="#0f2d64"></path>
              <path id="Pfad_25" data-name="Pfad 25" d="M95.293,125.439,94.4,123.65l-.894,1.789-1.342-1.431.072,3.935h4.472l-.072-3.935Z" fill="#0f2d64"></path>
              <path id="Pfad_26" data-name="Pfad 26" d="M88.117,135.612l2.951,4.382,2.952-4.382-2.952-4.382Z" fill="#0f2d64"></path>
              <path id="Pfad_27" data-name="Pfad 27" d="M88.967,125.417l-.894-1.788-.895,1.788-1.341-1.431v3.935h4.471v-3.935Z" fill="#0f2d64"></path>
              <path id="Pfad_28" data-name="Pfad 28" d="M87.715,135.031l2.951-4.382H84.809Z" fill="#0f2d64"></path>
              <path id="Pfad_29" data-name="Pfad 29" d="M101.084,135.031l2.907-4.382H98.133Z" fill="#0f2d64"></path>
              <path id="Pfad_30" data-name="Pfad 30" d="M69.793,75.919a1.664,1.664,0,0,0-.939-.134c-.464,0-.271.687.045.581a2.054,2.054,0,0,1,.581.089C69.816,76.68,70.115,76.133,69.793,75.919Z" fill="#0f2d64"></path>
              <path id="Pfad_31" data-name="Pfad 31" d="M91.471,140.575l2.906,4.382,2.951-4.382-2.951-4.382Z" fill="#0f2d64"></path>
              <path id="Pfad_32" data-name="Pfad 32" d="M94.78,135.612l2.951,4.382,2.951-4.382-2.951-4.382Z" fill="#0f2d64"></path>
              <path id="Pfad_33" data-name="Pfad 33" d="M101.771,125.417l-.894-1.788-.894,1.788-1.341-1.431v3.935h4.426v-3.935Z" fill="#0f2d64"></path>
              <path id="Pfad_34" data-name="Pfad 34" d="M110.036,81.866a.313.313,0,0,0-.179.4.33.33,0,0,0,.4.179,2.2,2.2,0,0,1,.581-.134.305.305,0,0,0,.313-.313C111.153,81.433,110.1,81.8,110.036,81.866Z" fill="#0f2d64"></path>
              <path id="Pfad_35" data-name="Pfad 35" d="M112.9,81.419a.446.446,0,0,0-.358-.224c-.38-.38-.226-.776-.715-.939a.888.888,0,0,0-.76.089.278.278,0,0,0-.089.447c.23.345.524-.107.671.089C112.137,82.269,113.029,81.876,112.9,81.419Z" fill="#0f2d64"></path>
              <path id="Pfad_36" data-name="Pfad 36" d="M84.317,131.141v6.081a9.03,9.03,0,0,0,.313,2.459l2.683-4.069Z" fill="#0f2d64"></path>
              <path id="Pfad_37" data-name="Pfad 37" d="M94.386,51.372a12.384,12.384,0,0,1,3.577,3l-3.577-6.662-3.622,6.662A11.882,11.882,0,0,1,94.386,51.372Z" fill="#0f2d64"></path>
              <path id="Pfad_38" data-name="Pfad 38" d="M84.473,45.819H84.46v.857H85.4v-.894h-.007a1.233,1.233,0,1,0-.919.036Z" fill="#0f2d64"></path>
              <path id="Pfad_39" data-name="Pfad 39" d="M79.362,54.054a9.018,9.018,0,0,1,5.1,5.053V54.814l-4.605-5.187v-.953h0a1.23,1.23,0,1,0-.934,0h0v.953l-4.605,5.187v4.293A8.816,8.816,0,0,1,79.362,54.054Z" fill="#0f2d64"></path>
              <path id="Pfad_40" data-name="Pfad 40" d="M93.894,46.677H85.4V62.326Z" fill="#0f2d64"></path>
              <path id="Pfad_41" data-name="Pfad 41" d="M109.857,49.628v-.953h0a1.23,1.23,0,1,0-.934,0h0v.953l-4.605,5.187v4.516a10.517,10.517,0,0,1,5.053-5.321,10.245,10.245,0,0,1,5.1,5.321V54.815Z" fill="#0f2d64"></path>
              <path id="Pfad_42" data-name="Pfad 42" d="M103.373,46.677h-8.54l8.54,15.649Z" fill="#0f2d64"></path>
              <path id="Pfad_43" data-name="Pfad 43" d="M115.4,52.381h0a1.23,1.23,0,1,0-.934,0h0v2.434h.939V52.381Z" fill="#0f2d64"></path>
              <path id="Pfad_44" data-name="Pfad 44" d="M94.833,44.633h-.007a1.227,1.227,0,1,0-.932-.01h0v2.054h.939V44.633Z" fill="#0f2d64"></path>
              <path id="Pfad_45" data-name="Pfad 45" d="M105.073,44.665a1.23,1.23,0,1,0-1.7,1.136h0v.875h.939V45.8h0A1.225,1.225,0,0,0,105.073,44.665Z" fill="#0f2d64"></path>
              <path id="Pfad_46" data-name="Pfad 46" d="M73.38,52.389h-.009v2.425h.939V52.371h0a1.233,1.233,0,1,0-.927.018Z" fill="#0f2d64"></path>
            </g>
          </g>
          <path id="Pfad_47" data-name="Pfad 47" d="M115.446,56.737v6.311h0a1.233,1.233,0,1,1-1.016.017h-.009a9.678,9.678,0,0,0-5.009-7.982,9.658,9.658,0,0,0-5.052,7.993,1.232,1.232,0,1,1-1.531.307l-1.869-3.516c-3.935-5.768-6.036-7.2-6.573-7.512-.537.313-2.683,1.744-6.573,7.512l-1.833,3.4H85.97a1.229,1.229,0,1,1-1.556-.073h-.007c-.4-5.992-4.242-7.8-5.047-8.154-.805.313-4.605,2.16-5.052,8.018H74.3a1.227,1.227,0,1,1-.978-.017V56.648a43.143,43.143,0,0,0-22.087,37.6,42.606,42.606,0,0,0,6.484,22.67h73.2a42.98,42.98,0,0,0-15.471-60.185Zm1.3,11.894c4.921-1.469,8.953,3.32,5.947,7.378a3.924,3.924,0,0,0-2.37-1.923L119.426,71l-1.431,1.207-1.341-1.118-.76,1.654L114.1,72.61c1.3,4.337,1.073,3.756,1.61,5.321a.287.287,0,0,0-.045.134l-.358-.134a4.379,4.379,0,0,0-2.057-1.744C111.478,73.818,112.871,69.787,116.743,68.631Zm3.264,9.345c-.626-.179-.715-.224-.939-.805-.624-2.185-2.321-1.229-3.309-1.073a2.24,2.24,0,0,1-.089-.4l4.471-1.028a3.344,3.344,0,0,1,2.1,1.833l.045.045a10.4,10.4,0,0,1,.447,2.191c.179.894.76.984.626,1.833a1.5,1.5,0,0,1-1.833,1.207,2.114,2.114,0,0,1-.626-1.744C120.99,78.513,120.722,78.2,120.007,77.976Zm-.179.939a.345.345,0,0,0-.492.268,2.791,2.791,0,0,1-1.118,1.431.881.881,0,0,1-.984-.4c-1.073-1.565-1.157-1.559-.894-2.191l.062-.05a.735.735,0,0,1,.474,0,.3.3,0,0,0,.358-.179.335.335,0,0,0-.179-.4,1.1,1.1,0,0,0-.894.045,6.8,6.8,0,0,0-.224-.76c.894-.134,1.744-.537,2.146-.089.581.671.358,1.52,1.476,1.923.671.179.805.045.715,1.476a3.3,3.3,0,0,0,.224,1.431c-1.118.939-1.431.805-1.431.805-.179-.134-.134-.85.045-1.565a3.588,3.588,0,0,0,.85-1.386A.513.513,0,0,0,119.828,78.915Zm-3.756,9.971,1.431-.4.447,1.028-1.967.76A2.931,2.931,0,0,0,116.072,88.886Zm-.581-13.816-.537-1.789,1.341.089.581-1.3,1.118.939,1.118-.939.581,2.057Zm-3.443,21.6a.7.7,0,0,1-1.028.492c-.76-.268-1.163-.045-1.744-.224l-.537-.134a.211.211,0,0,1-.045-.4,6.654,6.654,0,0,0,1.967-.715,13.1,13.1,0,0,0-.581-2.638c-.249-.831.23-1.331,1.047-2.633a.407.407,0,0,1,.067-.082,9.083,9.083,0,0,0,1.7-1.622,20.84,20.84,0,0,0,.805-2.236c0-.179-.089-.358-.268-.358a.277.277,0,0,0-.358.224c-.089.4-.671,1.923-.715,2.057a9.4,9.4,0,0,1-1.52,1.431,4.381,4.381,0,0,1-1.7.671c-.39,0-.637-.335-.537-.537.134-.224.715,0,.76-.447.045-.224-.179-.4-.313-.492a.153.153,0,0,0-.045-.089c.045-.089.268,0,.984.224a.276.276,0,0,0,.313-.089,4.766,4.766,0,0,0,1.52-2.772,1.824,1.824,0,0,1,.877-1.428.3.3,0,0,0,.152-.4.336.336,0,0,0-.4-.179,2.252,2.252,0,0,0-1.207,1.923l-.134.537a3.858,3.858,0,0,1,0-1.61c.268-.939.045-1.073.045-1.118a2.055,2.055,0,0,1-1.073-.313,1.179,1.179,0,0,1-.447-1.118,5.3,5.3,0,0,1-.492-.805,2.26,2.26,0,0,0,1.386-.715c.227-.34-.2-.736-.492-.447,0,0-.671.76-1.252.447s.045-1.341.581-1.789a3.207,3.207,0,0,1,3.353-.268,2.555,2.555,0,0,1,1.163,2.37c-.089,1.073-.85,1.252-.894,1.207-.045,0-.089-.134-.089-.224a.313.313,0,0,0-.626,0c0,.678.45,1.027,1.073.76.339.452.163.224.76.984.894,1.207.313,2.37.85,3.622a3.033,3.033,0,0,1,.447,2.459,2.745,2.745,0,0,0-.134.313,6.813,6.813,0,0,0-1.61.045,2.489,2.489,0,0,0-.313.045c-.224-.089-.447-.581-.984-.581a.976.976,0,0,0-.939,1.207c.089.671.4,1.52,1.028,1.7.48,1.2.1,1.781-.447,2.951A1.631,1.631,0,0,1,112.048,96.666ZM112,91.122c-.045-.358.268-.671.537-.4.447.447.581.537.984.447.179-.045.268,0,1.386-.089.358-.045.671.089.715.447a.946.946,0,0,1-.76.894,6.035,6.035,0,0,1-2.191-.045C112.4,92.329,112.137,91.837,112,91.122Zm-.715-14.711c3.524,0,5.15,3.659,3.041,5.768a3.2,3.2,0,0,0-1.381-3.775,3.4,3.4,0,0,0-2.688-.249l-.4.134-.85-1.252A4.36,4.36,0,0,1,111.288,76.411Zm-2.773.984.805,1.207a3.435,3.435,0,0,0-.581.4l-1.073-.492A3,3,0,0,1,108.515,77.395Zm-1.073,1.7.894.4c-.958,1.462.089,2.146.089,2.146a5.248,5.248,0,0,0,.581,1.118,3.348,3.348,0,0,1-1.7-2.862A2.573,2.573,0,0,1,107.442,79.094Zm.045,13.414c-.49.49-3.074.458-3.532,0C104.461,92,106.93,91.951,107.487,92.508Zm-7.467,5.366a4.107,4.107,0,0,1-2.325,1.565,2,2,0,0,1-1.923-1.073,6.639,6.639,0,0,1,.715-1.207c.306-1.748-2.626-6.087,1.3-8.049a3.876,3.876,0,0,1,1.967.313,3.417,3.417,0,0,0,1.61.492,1.556,1.556,0,0,0,.268-.045,3.364,3.364,0,0,1,.85.805c.894,1.476.626,2.459.4,4.471-1.476-.626-1.431-.581-1.476-.581a25.87,25.87,0,0,0-1.61-4.248.32.32,0,0,0-.581.268,19.431,19.431,0,0,1,1.833,5.545.319.319,0,0,0,.358.313.39.39,0,0,0,.268-.358,2.545,2.545,0,0,0-.134-.805l2.37.939c-1.386.313-1.073,2.236.313,2.5a3.817,3.817,0,0,0,.805.134.965.965,0,0,1-1.341.447l-4.337-2.549c-.492-.313-1.341-2.593-1.744-4.114a.337.337,0,0,0-.358-.224.321.321,0,0,0-.224.4C98.315,97.338,98.812,97.16,100.02,97.874Zm-9.345-8.541c3.488,0,3.246-6.534,2.593-9.926a4.066,4.066,0,0,1,.313-1.833c.85-.85,1.7-1.61,2.236-2.057.224,1.118.805,1.923,1.878,1.565-.045.537-.447.537-.894.805A6.624,6.624,0,0,0,94.7,82C94.923,85.928,94.194,91.093,90.675,89.333Zm13.682,8.809a.776.776,0,0,1-.581-1.207c.31-.207.61-.123,1.923,0,.4.045.537-.045.984-.492.179-.179.4-.089.581.134-.089.626-.313,1.431-.671,1.52A5.343,5.343,0,0,1,104.357,98.142Zm1.073-1.878V95.146a1.91,1.91,0,0,0,.715,0v.939C105.9,96.334,105.951,96.351,105.43,96.264ZM104,93.179a5.2,5.2,0,0,0,3.488,0A1.79,1.79,0,0,1,104,93.179Zm-1.028-7.557-.85-.313a1.207,1.207,0,0,0,.224-.268C102.747,85.354,102.837,85.4,102.971,85.622Zm-2.549-3.04-.4.089a.263.263,0,0,0-.224.313.26.26,0,0,0,.313.268,5.026,5.026,0,0,0,2.191-1.028,1.291,1.291,0,0,1-.626,1.341c.074.148.671.663.671.76a1.857,1.857,0,0,0-.805.85.336.336,0,0,0,0,.4c.179.4,1.028.492,1.341.671l-.268.268a.291.291,0,0,0,.313.491,1.156,1.156,0,0,0,.447-.4c.224.358,1.073,1.833.805,2.057a8.662,8.662,0,0,0-.894.85.754.754,0,0,1-.537.224.837.837,0,0,1-.626-.358l-1.207-1.52a.318.318,0,0,0-.492.4l.805,1.028c-1.374-.229-1.317-.805-2.951-.805-.537-.134-.447-.894-.4-1.073.089-.626,0-.76-.4-.76-.537,0-.626-1.207-.537-1.967a2.724,2.724,0,0,1,2.683-2.28A3.293,3.293,0,0,1,100.422,82.582Zm-1.475-8.854a3.86,3.86,0,0,1-.179,1.252A3.022,3.022,0,0,1,97.6,76.411a.581.581,0,0,1-.894-.179,2.522,2.522,0,0,0,1.3-1.252.242.242,0,0,0-.447-.179,1.89,1.89,0,0,1-1.028.984,3.671,3.671,0,0,1-.224-1.118l.089-1.3c.045-.358.492-.4.492.045l.045.939a.2.2,0,0,0,.134.045c.089,0,.268-.179.268-1.073.045-1.073.358-1.476,1.073-.671A1.652,1.652,0,0,1,98.947,73.728Zm-8.317-11L93.268,63l1.118-2.459L95.5,63l2.638-.268-1.565,2.146,1.565,2.191L95.5,66.8l-1.118,2.415L93.268,66.8l-2.638.268L92.2,64.875ZM84.236,70.42l1.118.85.715-1.565.76,1.565L87.9,70.2v2.951a3.691,3.691,0,0,0-3.666-.089Zm-.313,3.666a3.686,3.686,0,0,1,2.146-.894,4.085,4.085,0,0,1,2.37,1.073c.224,1.207.85,1.476,1.386,2.057s.224,1.386-.805,1.7a1.943,1.943,0,0,1-1.118.045,7.063,7.063,0,0,1,.134-2.459.277.277,0,0,0-.224-.358.285.285,0,0,0-.358.224,5.853,5.853,0,0,0-.045,3.041l.134.313a2.61,2.61,0,0,1-2.37.134c.045-.045.045-.134.089-.224a1.4,1.4,0,0,0,.939-.089.336.336,0,0,0,.179-.4.361.361,0,0,0-.4-.179c-.537.224-.715.045-.715.045a4.911,4.911,0,0,1-.537-1.118,2.344,2.344,0,0,1-.045-.581.689.689,0,0,1,.268-.179,1.745,1.745,0,0,1,.089.581c-.084.335.511.5.626.045a1.525,1.525,0,0,0-.492-1.252,1.215,1.215,0,0,0-.626.134c-.125-.332-.154-.581-.492-.581a.321.321,0,0,0-.224.4l.224.76a3.127,3.127,0,0,0,.4,1.654,2.129,2.129,0,0,1-.984-.268c-.4-.4.134-.492.179-1.386.045-.537-.537-.76-.537-1.3C83.118,74.757,83.073,74.667,83.923,74.086Zm-2.191,7.691a.422.422,0,0,1,.268-.76.412.412,0,0,1,.4.447c0,.179-.089.268-.268.447a5.269,5.269,0,0,0,.581,2.325,4.249,4.249,0,0,0-.626,2.057l.224.089a.942.942,0,0,1,.089,1.744l-.179.089v3.13a5.839,5.839,0,0,1,1.163.134,8.241,8.241,0,0,1-2.772,0,5.488,5.488,0,0,1,1.163-.134v-3.13l-.179-.089a.941.941,0,0,1,.045-1.744l.224-.089a3.717,3.717,0,0,0-.626-2.057,4.778,4.778,0,0,0,.581-2.37Zm-3.085,5.187a30.405,30.405,0,0,1,2.37-5.142,1.114,1.114,0,0,0,.179.313,3.143,3.143,0,0,1-.537,1.833l-.358.224a2.1,2.1,0,0,1,.894,1.7,1.579,1.579,0,0,0-.805,1.386,1.679,1.679,0,0,0,.76,1.341v2.146c-.8.072-1.767.3-1.386.984s3.085.4,3.354.447c.641.087.775.618.045.805a8.285,8.285,0,0,1-4.114-.358C77.484,91.927,78.244,88.037,78.647,86.964ZM75.2,76.545a.716.716,0,0,1-.179.671.726.726,0,1,1,.179-.671Zm-1.252,1.386a1.231,1.231,0,0,0,1.118,0,2.989,2.989,0,0,0,1.073,1.654H72.879A2.644,2.644,0,0,0,73.952,77.931Zm.134,9.7V81.865a.313.313,0,0,0-.626,0V85.04h-.581V80.211h3.264V85.04h-.626V81.865a.305.305,0,0,0-.313-.313.336.336,0,0,0-.313.313v5.769c.537,0,1.789.179,1.923.671.342,1.091-4.65,1.131-4.65.045C72.3,87.813,73.549,87.634,74.086,87.634ZM67.871,71.09l1.073.85.76-1.565.715,1.565,1.073-1.073V73.1a3.616,3.616,0,0,0-3.622-.224V71.09Zm-3.4,6.439a1.892,1.892,0,0,1,.894-.224,1.556,1.556,0,0,0,1.3-.894c.268-.581.134-3.756,3.488-3.219a1.72,1.72,0,0,1,1.565,1.386c-2.624-1.166-4.158,0-4.158,2.951A2.266,2.266,0,0,1,66.887,79a6.888,6.888,0,0,1-2.236-.268A.706.706,0,0,1,64.472,77.529Zm5.813.268a.271.271,0,0,0,.268-.358,2.9,2.9,0,0,1,.224-.671c.268.045.581.134.626.268a2.646,2.646,0,0,1-.939,1.7c-.277.61-.484.537-.626.537a2.05,2.05,0,0,1-.715-.224.283.283,0,0,0-.4.045.3.3,0,0,0,.045.447,1.252,1.252,0,0,0,.715.313l-.045.268a.424.424,0,0,1-.4.179,3.038,3.038,0,0,1-1.654-.894,2.963,2.963,0,0,0,.805-1.878c0-2.146.805-3.309,2.817-2.549.922.307.774.438.537,1.386a2.436,2.436,0,0,0-1.073-.224,2.472,2.472,0,0,0-.492,1.386A.3.3,0,0,0,70.285,77.8Zm.8,2.862a2.49,2.49,0,0,1-2.146.894,4.415,4.415,0,0,1-3.89-2.146,6.689,6.689,0,0,0,1.654.224,4.349,4.349,0,0,0,2.325,1.3.968.968,0,0,0,.984-.626v-.134Zm-9.524,31.3a2.252,2.252,0,0,1-2.236-2.28v-6.215a1.071,1.071,0,0,0-1.028-1.028,1.185,1.185,0,0,1-1.207-1.252c.134-3.219.492-11.089.85-14.487.313-2.951,3.13-5.321,5.813-6.528,0-.4-.045-.984.358-1.028a4.721,4.721,0,0,0,.626.894l-5.723,5.589a2.236,2.236,0,0,0-.537,2.146L59.2,89.96c-.179,2.057-.76,8.451-.984,10.15a.749.749,0,0,0,.447.805,2.052,2.052,0,0,1,1.476,1.967l.134,6.8a1.4,1.4,0,0,0,1.431,1.386h.894c0,.07,0,.027.089.894ZM59.643,98.41a11.886,11.886,0,0,1,.537-1.744,11.238,11.238,0,0,1,.581,1.744.591.591,0,0,1-.581.581A.585.585,0,0,1,59.643,98.41ZM61.521,107a11.886,11.886,0,0,1,.537-1.744A11.238,11.238,0,0,1,62.639,107,.56.56,0,0,1,61.521,107Zm.09-4.65a11.886,11.886,0,0,1,.537-1.744,11.886,11.886,0,0,1,.537,1.744A.537.537,0,0,1,61.611,102.345Zm5.857,14.13c-.671.045-.313.089-2.236-.447a4.161,4.161,0,0,0-1.744-.4.782.782,0,0,1-.671-1.028,5.973,5.973,0,0,0,.4-3.532,12.049,12.049,0,0,1,1.207-5.992c.471-1.412-.429-1.046-1.789-9.032a4.579,4.579,0,0,0,.76.358.677.677,0,0,0,.85-.045,7.671,7.671,0,0,0,2.951.939c.089,1.923.268,5.679-.313,7.78-.76,2.057-.358.671-1.654,5.992a4.831,4.831,0,0,0-.179,2.951c.211.547.85.8,2.593,1.878A.315.315,0,0,1,67.468,116.475ZM63.668,94.3a2.845,2.845,0,0,1,.537-.045l.715.268c1.207.4,1.744-.671,2.862-.224,1.356.565,1.43.456,2.683-.045a2.991,2.991,0,0,1-3.175,2.415,4.211,4.211,0,0,1-2.772-1.073C64.472,95.414,64.472,95.459,63.668,94.3Zm2.012,17.661.224-.894h2.5c.05,0,.034,0,.224.894Zm9.032,4.338c-1.383.23-2.735-.374-4.2-.313-.874.219-1.4-.345-1.3-.984a7.176,7.176,0,0,0-.179-4.024c-1.125-4.571.947-6.729.089-8.272-.447-.894-.85-1.744-1.207-2.593,0-1.207-.089-2.28-.089-2.862a3.788,3.788,0,0,0,2.1-.85l1.431-.224.671,5.857c.313,1.028.045,1.654-.268,3.264-.089.358-.581,6.528-.581,6.662a3.508,3.508,0,0,0,.447,2.012c.29.538.983.645,3.175,1.61A.385.385,0,0,1,74.712,116.3Zm-2.1-21.507-1.878-4.114,1.967.268c.581,2.549.939,9.3,1.073,18.735a2.265,2.265,0,0,1-1.967,2.236c.626-7.4.419-5.762.894-8.138a4.215,4.215,0,0,0-.045-1.833c-.706-5.848-.626-4.9-.626-5.857C72.431,95.817,72.834,95.638,72.61,94.789ZM74.8,90.541l-4.292-.492a3.382,3.382,0,0,1,.4-2.1,5.788,5.788,0,0,0,.626-2.28l.045-1.654a.267.267,0,0,0-.268-.313.305.305,0,0,0-.313.313l-.089,1.431c-.045,1.833-.85,2.191-1.028,3.711a7.681,7.681,0,0,1-1.386.134,5.186,5.186,0,0,1-2.146-.4.265.265,0,0,0-.4.134.272.272,0,0,0,.134.4,6.378,6.378,0,0,0,3.8.358c.045.715.134.76,2.1,5.187.089.268.089.358-.134.492-.045,0-.045,0-.089.045l-1.252.179a4.5,4.5,0,0,0,.581-1.476.544.544,0,0,0-.76-.581c-1.171.52-1.169.645-2.28.089-1.341-.581-2.1.492-2.951.224l-.272-.09v-.09a.662.662,0,0,0-.358-.85,9.456,9.456,0,0,0-1.565-.447,9.228,9.228,0,0,0,1.341-5.634l-.224-1.878.939-.939a.3.3,0,0,0,0-.447c0-.045-.045-.045-.089-.089-.208-.1-.158-.063-3.443,3.175a1.4,1.4,0,0,0-.492,1.431l.76,3.711c.089.358.358,1.118.984,1.3a7.385,7.385,0,0,1,1.52.358c.089.045.045.224-.045.179a2.7,2.7,0,0,0-.626.089.524.524,0,0,0-.4.85l.76,1.118a.127.127,0,0,1-.179.179A4.907,4.907,0,0,1,60.939,93.4l-1.878-5.813a1.594,1.594,0,0,1,.4-1.52l5.679-5.544a4.936,4.936,0,0,0,3.8,1.654,3.537,3.537,0,0,0,2.415-.85,2.552,2.552,0,0,1,.894,1.967v4.114c-1.341.671-.939,2.37,2.236,2.37a6.007,6.007,0,0,0,1.565-.179A1.194,1.194,0,0,1,74.8,90.541Zm8,24.816a.933.933,0,0,1-1.073,1.028l-.447-.045c-1.9-.439-2.849.432-4.516-.045a.4.4,0,0,1,0-.76l1.207-.447c.671-.224,1.923-.447,2.325-1.028a3.52,3.52,0,0,0,.581-1.476,15.357,15.357,0,0,0,1.923.447A8.129,8.129,0,0,0,82.805,115.357Zm1.028-13.414-.179,10.6c-1.7-.268-4.605-.76-4.427-2.459.224-2.325.939-12.251,1.431-16.455,1.9.216,3.147.045,3.532-.537a1.109,1.109,0,0,0-.224-1.163c.179-.134.313-.268.313-.447,0-.134,0-.581-1.476-.715V88.618a1.581,1.581,0,0,0-.045-2.727c.216-1.294.663-1.492.939-1.7-.423-.265-.723-.254-.939-2.057a.988.988,0,0,0-.134-1.476c.76-.224,1.341-.447,1.341-.447-.126-.758.378-1.065.693-.839a4.858,4.858,0,0,0,1.588.436A2.975,2.975,0,0,0,88,79.222c.124.191.529.81,1.111.855a3.554,3.554,0,0,0,1.878-.313,3.8,3.8,0,0,1,0,.715.669.669,0,0,1-.537.581c-.179.045-.313.224-.268.358a.286.286,0,0,0,.358.268,1.266,1.266,0,0,0,1.028-1.073c.134-.805-.134-1.52.224-2.1a1.99,1.99,0,0,1,1.118-.939,4.481,4.481,0,0,0-.224,1.923c.432,3.242.964,9.443-2.28,9.211a2.633,2.633,0,0,1-.211-.628l.032,0c1.207,0,1.833-1.207,2.057-2.415a.316.316,0,0,0-.626-.089,2.5,2.5,0,0,1-.939,1.744.939.939,0,0,1-.671.089c-.3-1.928.178-2.559-.4-2.593a.273.273,0,0,0-.313.268c0,.089-.224,2.772.76,4.337.76,3.041,3.354,19.719,1.833,22.044-.626.939-2.638,1.3-4.829,1.3l.224-13.056a.305.305,0,0,0-.313-.313.336.336,0,0,0-.313.313l-.224,13.056c-.715-.045-1.476-.089-2.191-.179l.179-10.642a.312.312,0,1,0-.625,0Zm.492,14.442c-.224-.089-.134-.447,0-.581.224-.224.4-.268.894-.268,2.191-.134,2.28-.715,2.728-1.118.592-.691,1.282-.381,1.833-.224.22,1.264.224,1.625.671,2.146C84.683,116.385,86.606,116.385,84.325,116.385Zm7.557-.045a1.351,1.351,0,0,1-1.341-1.207s-.134-1.028-.224-1.431c-.045-.537.313-.626.715-.76l3.175-1.118a2.227,2.227,0,0,1,1.207,1.341,6.01,6.01,0,0,1,.224.671,4.723,4.723,0,0,0,1.476,2.549Zm9.345-.044c1.52-1.341,1.61-4.606,1.476-6.215a.267.267,0,0,0-.313-.268.336.336,0,0,0-.313.313c.045.045.447,3.845-1.073,5.544a2.429,2.429,0,0,1-2.146.715c-1.833-.179-2.28-1.565-2.593-2.728a6.116,6.116,0,0,0-.268-.715,3.151,3.151,0,0,0-1.028-1.386c.537-.179.939-.358,1.252-.447a1.534,1.534,0,0,1,1.028.626,11.418,11.418,0,0,0,2.191,1.923.31.31,0,0,0,.447-.134.272.272,0,0,0-.134-.4c-1.579-.978-2.1-2.291-3.13-2.549l.268-3.264a23.144,23.144,0,0,0-.85-2.638c-.85-2.146-1.252-3.667-.537-5.634a2.493,2.493,0,0,0,1.923,1.028,4.507,4.507,0,0,0,3.13-1.878c.581.313,1.207.715,1.788,1.028,0,.089-.626,4.158-2.414,5.142a.309.309,0,0,0-.134.447.3.3,0,0,0,.4.089c1.431-.76,2.191-2.951,2.5-4.337,0,1.3.34,4.588-1.341,6.215-.268.4.183.711.447.447a6.349,6.349,0,0,0,1.52-4.158,2.9,2.9,0,0,0,.671.447,2.656,2.656,0,0,1,1.61,3.4l-2.191,7.735A2.586,2.586,0,0,1,101.227,116.3Zm8.451.089h-4.561v-3.4l1.386.939.894-1.833.894,1.833,1.386-1.252v3.711Zm4.427,0h-3.8v-5.1l-1.789,1.61-.76-1.52c.089-4.114.447-9.7,1.52-12.073a4.068,4.068,0,0,1,1.386-1.654c1.341.4,2.191-.134,2.012-1.52l4.74-2.236h.089c5.053,0,5.992-5.008,5.992-5.053,0-.4-.515-.534-.626-.089A5.61,5.61,0,0,1,119.38,93c1.744-1.7,1.118-4.427,1.028-6.171a4.638,4.638,0,0,1,1.118-3,.316.316,0,1,0-.447-.447,5.345,5.345,0,0,0-1.3,3.443c.089,1.386.671,4.293-.76,5.679a4.26,4.26,0,0,1-3.443.715L115,93.09l.046-.09a1.427,1.427,0,0,0,.984-2.1,18.09,18.09,0,0,1,3.264-1.118.3.3,0,0,0-.134-.582l-.581.134-.939-2.057a3.409,3.409,0,0,1-.045-2.728l.894-2.1c.492.85,1.565.134,2.325-.492a1.5,1.5,0,0,0,1.833.358c.851,1.083,1.921,2.116,1.744,3.98-.721,5.376-.833,3.65.4,9.345.581,2.459-.805,4.829-3.443,4.829h-8.093a1.163,1.163,0,0,0,0,2.326h.85v4.292h-.85a1.146,1.146,0,0,0-1.163,1.163,1.185,1.185,0,0,0,1.163,1.163h.85v6.976Zm13.051,0H114.7V109.41h12.453Zm.139-7.6h-14.04a.537.537,0,0,1,0-1.073h14.04a.538.538,0,0,1,.537.492A.556.556,0,0,1,127.295,108.784Zm-12.592-1.7v-4.294h12.453v4.294Zm13.263-22.4c-1.073,3.218-.805,4.669-.805,16.41.938,0,.806,1.073.134,1.073h-14.04a.537.537,0,0,1,0-1.074h8.093a4.7,4.7,0,0,0,4.695-4.695c.088-6.927.228-8.752-.76-11.715a4.365,4.365,0,0,1-.313-1.52,1.854,1.854,0,0,1,1.252-1.565v-.939a1.106,1.106,0,0,1,.045-2.012l.268-3.622a.7.7,0,0,1-1.163-.537.73.73,0,0,1,.805-.715.728.728,0,0,1,.626-1.118.742.742,0,0,1,.626,1.118.716.716,0,0,1-.045,1.431.673.673,0,0,1-.492-.179l.313,3.666a1.1,1.1,0,0,1,.045,1.967v.984a1.96,1.96,0,0,1,1.028,1.52A4.178,4.178,0,0,1,127.966,84.683Z" fill="#0f2d64"></path>
          <path id="Pfad_48" data-name="Pfad 48" d="M94.373,37.619a56.693,56.693,0,1,0,56.693,56.693A56.758,56.758,0,0,0,94.373,37.619ZM150,94.311A55.629,55.629,0,1,1,94.373,38.682,55.692,55.692,0,0,1,150,94.311Z" fill="#0f2d64"></path>
        </g>
        <path id="Pfad_49" data-name="Pfad 49" d="M60.7,55.944l.153-.453.964.03.406.611.48-2.435c-.253.175-.657.577-.724.577H60.5l-.718,2.559L61.443,58.6l1.374-.616.05-.9.494-.054.8,1.029-2.036.857-.237,1.413.387.268.115-.465,2.138-.827.69-1.826L63.8,55.551l-1.371.268-.039.988-.586.254s-1.1-1.046-1.1-1.117" fill="#0f2d64"></path>
        <path id="Pfad_50" data-name="Pfad 50" d="M59.759,63.068l-4.5-4.126.972-.113-.194-1.465a2.28,2.28,0,0,0-.914.149.928.928,0,0,0-.372,1.086L54.9,60.04l5.006,4.553Z" fill="#0f2d64"></path>
        <path id="Pfad_51" data-name="Pfad 51" d="M52.715,63.754s-.823.341-1.2.495c.025.072.481,1.638.481,1.638l.087.1.5-.29,2.388,1.714.2.955,1.286-.7-.323-1.5-.549.171L53.23,64.575l-.005-.728.971-.679.209.577,2.14,1.506.076.818,1.472-.791-.164-1.325-.693.346L54.8,62.53s-.094-.686-.18-1.044l-2.089,1.233Z" fill="#0f2d64"></path>
        <path id="Pfad_52" data-name="Pfad 52" d="M46.54,73.8l.338,1.28c-.342.281-.983.769-.983.769l.479,1.51.878-.314L49.7,78.137l.375.576,1.046-.82c-.211-.417-.4-.823-.613-1.21l-.573.345-2.523-1.166-.112-.853.883-.454.187.307,2.29,1.074.267.517L51.95,75.5,51.5,74.163l-.669.608c-.414-.205-1.993-.916-1.993-.916s-.339-.626-.5-.923h-.09Z" fill="#0f2d64"></path>
        <path id="Pfad_53" data-name="Pfad 53" d="M53.488,124.89V124l2.3-2.081.4,1.2-2.223,2.243-.489.1v1.617l1.276-.32v-.577l2.176-2.316.668-.075c-.255-.793-.486-1.577-.756-2.329-.663-.1-1.985-.242-1.985-.242l-2.164,1.739-.458-.084v2.463l1.547-.239c-.083-.075-.185-.133-.284-.214" fill="#0f2d64"></path>
        <path id="Pfad_54" data-name="Pfad 54" d="M55.1,127.8s0,1.357,0,1.45h1.448l-.019-.767,2.608-2.692.664-.184-.4-1.235-1.446-.174.262.761-2.611,2.729-.509.112" fill="#0f2d64"></path>
        <path id="Pfad_55" data-name="Pfad 55" d="M59.691,131.611c2.147-2.692,2.385-2.955,2.385-2.955s.339-.122.506-.188l-1.489-1.962-1.47.211,1.157,1.405-2.037,2.794v-1.453l-1.483,0v2.06h2.267s.1.056.164.085" fill="#0f2d64"></path>
        <path id="Pfad_56" data-name="Pfad 56" d="M51.94,122.191l2.587-1.807.826-.14-.2-1.294-1.351-.47.1.795-2.811,2-.23-.063-.1.065-.183,1.408,1.366.237Z" fill="#0f2d64"></path>
        <path id="Pfad_57" data-name="Pfad 57" d="M49.534,120.179l1.1-.325s-.13-.389-.184-.553l2.234-1.414,1.013.286-.21-2.081-1.338-.317.007,1.135s-1.486,1.015-2.138,1.384c-.2-.428-.579-1.276-.579-1.276l-1.1.263.66,1.661-1.612,1.013,1.386.457.66-.406.1.173" fill="#0f2d64"></path>
        <path id="Pfad_58" data-name="Pfad 58" d="M45.9,115.644l.474-.35.445-2.213,2.952-1.166.005-1.078,1.58.566-.267,1.44,1.073.348.194,2.139-1.025-.143-1.919,1.161-1.255-.536,2.724-1.717-.391-1.027c-.862.35-2.646,1.04-2.646,1.04l-.109,1.515.254.7Z" fill="#0f2d64"></path>
        <path id="Pfad_59" data-name="Pfad 59" d="M45.779,111.82l-.073-.2-.685.289-1.334-.652,1.746-.733-.423-1.678.169-.1.962-.054s.269.936.394,1.392c.728-.32,2.256-.983,2.271-1.01.089-.374.255-1.167.255-1.167l1.221.556-.093,2.047-.977-.427-2.406,1.066.13.524Z" fill="#0f2d64"></path>
        <path id="Pfad_60" data-name="Pfad 60" d="M49.557,105.956l-1.207-.907-.121.788-3.112,1.01-.388-.2-.642,1.325,1.258.677.3-.667,2.935-.907.75.189Z" fill="#0f2d64"></path>
        <path id="Pfad_61" data-name="Pfad 61" d="M42.445,103.365l1.808,1.87c.748-.262,2.222-.759,2.222-.759l.132-1.551-.7-.49.255-.559,1.146-.19-.29,2.127,1.122,1.044.383-.245-.343-.382.342-2.335-1.267-1.533-2.163.416-.481,1.431.873.617-.153.66-1.368.444-.3-.333.486-1,.648.018-1.788-1.642c.047.361.151.81.151.881s-.5,1.036-.713,1.51" fill="#0f2d64"></path>
        <path id="Pfad_62" data-name="Pfad 62" d="M42.134,97.9,43.359,99,44.38,97.67,43.154,96.6Z" fill="#0f2d64"></path>
        <path id="Pfad_63" data-name="Pfad 63" d="M41.875,92.192l1.659,1.987,3.451-.028.593.348.429-2.427-1.127-1.14-.229,1.718-.536.316H43.3l1.03-.946L43.4,90.844Z" fill="#0f2d64"></path>
        <path id="Pfad_64" data-name="Pfad 64" d="M47.743,84.034l-5.214-1.275.292,1.347,4.811,1.18s.261.6.378.866l.887-1.523-.7-1.175s-.3.409-.454.58" fill="#0f2d64"></path>
        <path id="Pfad_65" data-name="Pfad 65" d="M47.9,70.677l.537,1.383.626-.262,2.661,1.293.335.739,1.019-.852c-.1-.5-.324-1.5-.324-1.5l-.626.493-2.774-1.45-.167-.408Z" fill="#0f2d64"></path>
        <path id="Pfad_66" data-name="Pfad 66" d="M58.421,57.566H57.034l.162,1.525h.714c.82.811,2.458,2.444,2.458,2.444l.173.719,1.183-.457V60.313l-.679.259s-2.571-2.55-2.583-2.63Z" fill="#0f2d64"></path>
        <path id="Pfad_67" data-name="Pfad 67" d="M75.247,136.52l1.026-.585-.3-.366-1.43.676h-.509l-1.973,5.564-.364-1.188-1.235.208.3,1.556.823.323,1.667-.5a52.392,52.392,0,0,1,2-5.686" fill="#0f2d64"></path>
        <path id="Pfad_68" data-name="Pfad 68" d="M76.528,139.341l-1.47.85c.265.562.555,1.115.829,1.587.484-.291.986-.584,1.442-.881Z" fill="#0f2d64"></path>
        <path id="Pfad_69" data-name="Pfad 69" d="M68.621,140.546l-.588-2.024,1.392-.441s.3.967.391,1.421l1.124-2.789c0-.1,0-.577,0-.577l-1.4-.974,1.389-.623,1.914,1.408-.5.413-1.411,3.487-.167-.026Z" fill="#0f2d64"></path>
        <path id="Pfad_70" data-name="Pfad 70" d="M47.3,86.181l-.545.2-2.411-.3-.545-.362.029.472-1.3,1.512L44,89.952l1.26-.434,1.766.21.669.544.856-1.972Zm-.255,2.468-3-.292-.462.081,1-1.1,2.933.326Z" fill="#0f2d64"></path>
        <path id="Pfad_71" data-name="Pfad 71" d="M54.55,68.348,53.355,69.8c-.176-.115-.36-.23-.527-.341V67.317l-.5-.534L50,66.6l-.349.257.487,1.87c.005.191-.012.654-.012.654l2.81,1.552.043.372.4.24,1.7-1.709Zm-2.316.794-2.021-1.03-.033-.445,2.018.445.041.237Z" fill="#0f2d64"></path>
        <path id="Pfad_72" data-name="Pfad 72" d="M49.005,78.924l-.509.115-2.337-.781-.52-.524-.074.552-1.549,1.17,1.038,2.513,1.288-.2,1.783.539.531.709,1.175-1.8ZM48.3,81.272,45.43,80.39h-.542l1.162-.918,2.881.969Z" fill="#0f2d64"></path>
        <path id="Pfad_73" data-name="Pfad 73" d="M67.716,132.225l-1.3.449L68,134.244c-.13.253-.264.514-.391.783H65.474l-.374.378-.16,2.613a3.84,3.84,0,0,0,.272.416l1.618-.525.691,0s1.124-2.723,1.432-3.16l.369-.093c.03-.18.11-.561.11-.561Zm-1.28,5.511-.438,0,.429-2.167h.94Z" fill="#0f2d64"></path>
        <g id="Gruppe_4" data-name="Gruppe 4">
          <path id="Pfad_74" data-name="Pfad 74" d="M118.727,134.913l1.519,2.954-.114.411,1.344.38.305-1.375-.625-.206-1.374-2.661-.031-.912-1.2.052-.56,1.408Z" fill="#0f2d64"></path>
          <path id="Pfad_75" data-name="Pfad 75" d="M121.364,133.3l1.741,2.817-.046.394,1.341.311.209-1.375-.64-.171-1.614-2.54-.033-.913-1.2.172-.5,1.425Z" fill="#0f2d64"></path>
          <path id="Pfad_76" data-name="Pfad 76" d="M128.268,135.128l-.126.315v.246l.393-.324.135-1.043-.163-.219-2.461-.351-1.94-2.608,1.216-.6,1.85,2.361h.487v.779a15.911,15.911,0,0,0,.7-1.481c0-.111-2.217-2.83-2.217-2.83l.156-.6-2.4.782v.686c0,.072-.705,1.683-.705,1.683l2.2,2.969Z" fill="#0f2d64"></path>
          <path id="Pfad_77" data-name="Pfad 77" d="M130.1,129.733l-2.014-2.144.291-.674.7-.238,2.234,2.369-.023.245h1.4l.082-1.477-.65.064-2.288-2.358-.016-.792-2.014,1.141-.143,1.116-1.028.365-.106,1.5.787-.135,2.072,2.17.069.324,1.37.025.052-1.475Z" fill="#0f2d64"></path>
          <path id="Pfad_78" data-name="Pfad 78" d="M132.421,120.851l4.683,3.369-.92.222.069,1.325,1.579-.319-.2-2.453-4.646-3.3-.189-.754-.376.237Z" fill="#0f2d64"></path>
          <path id="Pfad_79" data-name="Pfad 79" d="M136.672,114.248l1.9,1.17c.441-.205.846-.466,1.26-.7v-.12s-.27-.776-.27-.847c0-.02.461-.424.461-.424s1.213.573,1.3.632v.393c-.29.081-.855.285-.855.285l-.607-.344.36,2.408.559-.846,1.355-.525c0-.072-.19-2.367-.205-2.572-.672-.3-2.111-1-2.111-1l-1.1,1.087.244.741-.461.266-.975-.6a17.163,17.163,0,0,0,1.571-1.44c0-.072-.19-.978-.284-1.44l-.444-.129s.023.477.015.559c-.582.491-1.124.957-1.723,1.483v1.963Z" fill="#0f2d64"></path>
          <path id="Pfad_80" data-name="Pfad 80" d="M145.213,89.355l-.843.573-3.9.366-.6-.208.956,1.391,4.122-.26,1.177-.262.379.249-.488.581.061.118,1.065.652.876-.822V91.6Z" fill="#0f2d64"></path>
          <path id="Pfad_81" data-name="Pfad 81" d="M145.848,87.705l-.784-.406.651-1.221-1.336-.823-.417.718-2.833.591-.6-.436h-.114l-.223,2.24.962.814.065-.035.217-1.5,2.236-.354s.4.26.584.394c-.293.25-.786.727-.786.727l.757.944,1.624-1.2v-.451Z" fill="#0f2d64"></path>
          <path id="Pfad_82" data-name="Pfad 82" d="M142.36,78.205l.187.272-.241.7-2.592,1.071-.214.007V79.109c.278-.14,2.8-1.245,2.8-1.245l.484.073.488-1.55-1.373-.148-.167.644L138.864,78.1l-.488-.145-.079.038v2.369c.249.151,1.879,1,1.947,1s2.5-.873,2.5-.873c.13.085.42.262.42.262l.08-.038.7-2.284c-.306-.065-1.335-.269-1.593-.324v.1Z" fill="#0f2d64"></path>
          <path id="Pfad_83" data-name="Pfad 83" d="M139.537,68.388l-1.291-.087-.068.786-2.973,1.855-.646-.081.2,1.608,1.326.274.076-.79,2.419-1.5.913.317-.214,1.128-.379-.012-2.445,1.5-.555-.117-.093.033.143,1.581s.837.42,1.271.682h.149l.005-1.141,2.234-1.3.823-.033.54-2.522-1.593-.659Z" fill="#0f2d64"></path>
          <path id="Pfad_84" data-name="Pfad 84" d="M136.637,66.5l-2.472,2.091-.7-.468-.05-.705,2.748-2.318.087.055h.2l.161-1.479-1.4-.2-.094.761-2.7,2.213-.973-.037v.1l.869,2.121,1.044.21.228,1.516,1.4.234s-.161-.721-.187-.739l2.965-2.487.135.057.093-.037.188-1.439-1.268-.21-.162.037Z" fill="#0f2d64"></path>
          <path id="Pfad_85" data-name="Pfad 85" d="M128.494,59.707l.08.487-.851.829-.834-1.969-1.374-.183-.27.331v.129l.435.1.9,2.164,1.735.568L130,60.668l-.291-1.533-.975-.011a4.012,4.012,0,0,1-.238-.545l.989-1.135.338.166.055.868-.513.428,2.3.454-.593-.8s-.053-1.247-.058-1.488l-2.451-.587L127,58.3l.663,1.4a8.194,8.194,0,0,1,.827.006" fill="#0f2d64"></path>
          <path id="Pfad_86" data-name="Pfad 86" d="M141.064,73.648l-.253.695L137.82,75.76l-.768,0V77.1l1.28.647c.029,0,.068-.037.068-.037v-.756l3.185-1.593.411.115.413-1.268v-.179c-.469-.151-.9-.267-1.345-.383" fill="#0f2d64"></path>
          <path id="Pfad_87" data-name="Pfad 87" d="M141.037,92.353l-.522,1.193.9,1.16h.1l.349-.757,3.458-.029.341.262.946-1.093-1.056-.973-.412.547-3.281.072s-.511-.266-.819-.382" fill="#0f2d64"></path>
          <path id="Pfad_88" data-name="Pfad 88" d="M147.527,96.851,146.6,95.7h-.8l.021-.2-1.074-.293-.161.58h-2.29L141.563,95h-.121l-.764,1.76c.275.357.6.679.874.971h.094l.6-.929h2.287l-.111,1.362,1.066.321.244-1.634Z" fill="#0f2d64"></path>
          <path id="Pfad_89" data-name="Pfad 89" d="M146.25,101.733l.464-.2-1.33-1.818-.1,0-.1.7-1.015,1.419-2.6-.575.238-1.056h2.8l.338.107-.705-1.326-2.181-.032-.738-.7-1.109,2.04.677.855-1.03,1.191,1.072,1.353.676-.96,2.871.639s1.334-1.33,1.768-1.641" fill="#0f2d64"></path>
          <path id="Pfad_90" data-name="Pfad 90" d="M146.2,106.952v-.106c-.323-.44-.949-1.336-.949-1.336l-.592-.147.145-.424-1.173-.575-.185.45-2.582-.605-.46-.686-1.051,2.239.781,1.015c.246-.414.727-1.22.727-1.22l2.2.57-.406,1.175,1.16.842c.015-.124.61-1.745.61-1.745Z" fill="#0f2d64"></path>
          <path id="Pfad_91" data-name="Pfad 91" d="M142.933,110.765l1.317-.641-.6-1.326-.68.308L140.376,108l-.617-.837-1.3,1.844.56,1.121.918-.93,2.839,1.17.159.4" fill="#0f2d64"></path>
          <path id="Pfad_92" data-name="Pfad 92" d="M135.73,127.518h.1l-.171-1.559-.505-.484.083-.121-.692-.947-.419.321s-1.279-1.075-1.945-1.623c-.033-.344-.059-.694-.118-1.052h-.121l-1.662.942c0,.075.109.816.143,1.229.024.033.026.063.058.094l1.059-.349,1.855,1.587c-.243.256-.866.96-.866.96a10.937,10.937,0,0,0,.637,1c.067,0,1.165-1.189,1.165-1.189Z" fill="#0f2d64"></path>
          <path id="Pfad_93" data-name="Pfad 93" d="M118.136,140.409l.446-1.564-1.5-.411-.43,1.493Z" fill="#0f2d64"></path>
          <path id="Pfad_94" data-name="Pfad 94" d="M116.425,137.18l.432-1.563-1.456-.464-.447,1.545Z" fill="#0f2d64"></path>
          <path id="Pfad_95" data-name="Pfad 95" d="M144.083,81.976l-.684-.708-.252.12-2.726.811-.381-.231-.528.305L139.35,84.7l1.147.811h.1V83.339l.664-.237,1.543,1.6.516.028,1.99-1.7.04-.278Zm-.2.884L142.6,83.6l-.649-.658,1.975-.622.326.2Z" fill="#0f2d64"></path>
        </g>
        <path id="Pfad_96" data-name="Pfad 96" d="M45.718,97.525l1.224,1.1,1.021-1.333-1.225-1.071Z" fill="#0f2d64"></path>
        <path id="Pfad_97" data-name="Pfad 97" d="M62.836,133.69l-1.65.4c.1.614.218,1.226.347,1.756.547-.142,1.111-.281,1.632-.438Z" fill="#0f2d64"></path>
        <path id="Pfad_98" data-name="Pfad 98" d="M64.9,130.306l-1.65.4c.1.614.218,1.226.347,1.756.547-.142,1.111-.281,1.632-.438Z" fill="#0f2d64"></path>
        <path id="Pfad_99" data-name="Pfad 99" d="M137.907,118.557l.443,1.639c.612-.111,1.22-.249,1.747-.393-.157-.543-.31-1.1-.48-1.62Z" fill="#0f2d64"></path>
        <path id="Pfad_100" data-name="Pfad 100" d="M134.769,116.735l.451,1.637c.611-.114,1.219-.255,1.745-.4-.159-.542-.315-1.1-.488-1.618Z" fill="#0f2d64"></path>
        <path id="Pfad_101" data-name="Pfad 101" d="M132.443,62.156l1.47-.13c0-.54-.028-1.082-.071-1.554-.488.051-.991.1-1.459.165Z" fill="#0f2d64"></path>
        <path id="Pfad_102" data-name="Pfad 102" d="M129.765,64.894l1.474-.071c.019-.54.016-1.082-.008-1.556-.49.032-.994.058-1.465.106Z" fill="#0f2d64"></path>
        <path id="Pfad_103" data-name="Pfad 103" d="M125.355,55.706l1.428-.371c-.091-.532-.206-1.063-.326-1.521-.473.131-.961.26-1.412.4Z" fill="#0f2d64"></path>
        <path id="Pfad_104" data-name="Pfad 104" d="M123.165,58.848l1.442-.313c-.07-.536-.163-1.07-.265-1.533-.478.112-.971.221-1.427.346Z" fill="#0f2d64"></path>
      </g>
    </g>
  </g>
</svg>
